<?xml version="1.0" encoding="UTF-8"?>
<svg xmlns="http://www.w3.org/2000/svg" viewBox="0 0 1000 1000" width="1000" height="1000">
<!-- Concentric circles -->
<circle cx="500.0" cy="500.0" r="460" fill="none" stroke="black" stroke-width="1.5"/>
<circle cx="500.0" cy="500.0" r="430" fill="none" stroke="black" stroke-width="1.5"/>
<circle cx="500.0" cy="500.0" r="380" fill="none" stroke="black" stroke-width="1.5"/>
<circle cx="500.0" cy="500.0" r="140" fill="none" stroke="black" stroke-width="1.0"/>
<!-- 360 degree tick marks -->
<line x1="40.0701" y1="508.0281" x2="52.0682" y2="507.8187" stroke="black" stroke-width="0.5"/>
<line x1="40.2802" y1="516.0538" x2="52.2729" y2="515.6350" stroke="black" stroke-width="0.5"/>
<line x1="40.6304" y1="524.0745" x2="52.6140" y2="523.4465" stroke="black" stroke-width="0.5"/>
<line x1="41.1205" y1="532.0880" x2="53.0913" y2="531.2509" stroke="black" stroke-width="0.5"/>
<line x1="41.7504" y1="540.0916" x2="61.6743" y2="538.3485" stroke="black" stroke-width="0.5"/>
<line x1="42.5199" y1="548.0831" x2="54.4542" y2="546.8288" stroke="black" stroke-width="0.5"/>
<line x1="43.4288" y1="556.0599" x2="55.3393" y2="554.5975" stroke="black" stroke-width="0.5"/>
<line x1="44.4767" y1="564.0196" x2="56.3599" y2="562.3495" stroke="black" stroke-width="0.5"/>
<line x1="45.6634" y1="571.9599" x2="57.5156" y2="570.0826" stroke="black" stroke-width="0.5"/>
<line x1="46.9884" y1="579.8782" x2="76.5327" y2="574.6687" stroke="black" stroke-width="1.0"/>
<line x1="48.4515" y1="587.7721" x2="60.2310" y2="585.4824" stroke="black" stroke-width="0.5"/>
<line x1="50.0521" y1="595.6394" x2="61.7899" y2="593.1444" stroke="black" stroke-width="0.5"/>
<line x1="51.7898" y1="603.4775" x2="63.4822" y2="600.7781" stroke="black" stroke-width="0.5"/>
<line x1="53.6640" y1="611.2841" x2="65.3075" y2="608.3810" stroke="black" stroke-width="0.5"/>
<line x1="55.6741" y1="619.0568" x2="74.9926" y2="613.8804" stroke="black" stroke-width="0.5"/>
<line x1="57.8196" y1="626.7932" x2="69.3548" y2="623.4855" stroke="black" stroke-width="0.5"/>
<line x1="60.0998" y1="634.4910" x2="71.5755" y2="630.9825" stroke="black" stroke-width="0.5"/>
<line x1="62.5140" y1="642.1478" x2="73.9267" y2="638.4396" stroke="black" stroke-width="0.5"/>
<line x1="65.0615" y1="649.7614" x2="76.4077" y2="645.8545" stroke="black" stroke-width="0.5"/>
<line x1="67.7414" y1="657.3293" x2="95.9322" y2="647.0687" stroke="black" stroke-width="1.0"/>
<line x1="70.5530" y1="664.8493" x2="81.7560" y2="660.5488" stroke="black" stroke-width="0.5"/>
<line x1="73.4954" y1="672.3190" x2="84.6216" y2="667.8238" stroke="black" stroke-width="0.5"/>
<line x1="76.5678" y1="679.7363" x2="87.6138" y2="675.0475" stroke="black" stroke-width="0.5"/>
<line x1="79.7691" y1="687.0989" x2="90.7316" y2="682.2180" stroke="black" stroke-width="0.5"/>
<line x1="83.0984" y1="694.4044" x2="101.2246" y2="685.9520" stroke="black" stroke-width="0.5"/>
<line x1="86.5547" y1="701.6507" x2="97.3403" y2="696.3903" stroke="black" stroke-width="0.5"/>
<line x1="90.1370" y1="708.8356" x2="100.8291" y2="703.3877" stroke="black" stroke-width="0.5"/>
<line x1="93.8441" y1="715.9569" x2="104.4395" y2="710.3233" stroke="black" stroke-width="0.5"/>
<line x1="97.6749" y1="723.0124" x2="108.1704" y2="717.1947" stroke="black" stroke-width="0.5"/>
<line x1="105.7030" y1="736.9175" x2="115.9890" y2="730.7371" stroke="black" stroke-width="0.5"/>
<line x1="109.8979" y1="743.7629" x2="120.0745" y2="737.4038" stroke="black" stroke-width="0.5"/>
<line x1="114.2115" y1="750.5340" x2="124.2756" y2="743.9983" stroke="black" stroke-width="0.5"/>
<line x1="118.6427" y1="757.2287" x2="128.5912" y2="750.5184" stroke="black" stroke-width="0.5"/>
<line x1="123.1901" y1="763.8452" x2="139.5731" y2="752.3736" stroke="black" stroke-width="0.5"/>
<line x1="127.8522" y1="770.3812" x2="137.5604" y2="763.3278" stroke="black" stroke-width="0.5"/>
<line x1="132.6277" y1="776.8349" x2="142.2113" y2="769.6131" stroke="black" stroke-width="0.5"/>
<line x1="137.5151" y1="783.2043" x2="146.9712" y2="775.8163" stroke="black" stroke-width="0.5"/>
<line x1="142.5129" y1="789.4874" x2="151.8386" y2="781.9355" stroke="black" stroke-width="0.5"/>
<line x1="147.6196" y1="795.6823" x2="170.6009" y2="776.3987" stroke="black" stroke-width="1.0"/>
<line x1="152.8336" y1="801.7872" x2="161.8901" y2="793.9144" stroke="black" stroke-width="0.5"/>
<line x1="158.1534" y1="807.8001" x2="167.0711" y2="799.7705" stroke="black" stroke-width="0.5"/>
<line x1="163.5773" y1="813.7192" x2="172.3535" y2="805.5353" stroke="black" stroke-width="0.5"/>
<line x1="169.1037" y1="819.5429" x2="177.7358" y2="811.2069" stroke="black" stroke-width="0.5"/>
<line x1="174.7309" y1="825.2691" x2="188.8730" y2="811.1270" stroke="black" stroke-width="0.5"/>
<line x1="180.4571" y1="830.8963" x2="188.7931" y2="822.2642" stroke="black" stroke-width="0.5"/>
<line x1="186.2808" y1="836.4227" x2="194.4647" y2="827.6465" stroke="black" stroke-width="0.5"/>
<line x1="192.1999" y1="841.8466" x2="200.2295" y2="832.9289" stroke="black" stroke-width="0.5"/>
<line x1="198.2128" y1="847.1664" x2="206.0856" y2="838.1099" stroke="black" stroke-width="0.5"/>
<line x1="204.3177" y1="852.3804" x2="223.6013" y2="829.3991" stroke="black" stroke-width="1.0"/>
<line x1="210.5126" y1="857.4871" x2="218.0645" y2="848.1614" stroke="black" stroke-width="0.5"/>
<line x1="216.7957" y1="862.4849" x2="224.1837" y2="853.0288" stroke="black" stroke-width="0.5"/>
<line x1="223.1651" y1="867.3723" x2="230.3869" y2="857.7887" stroke="black" stroke-width="0.5"/>
<line x1="229.6188" y1="872.1478" x2="236.6722" y2="862.4396" stroke="black" stroke-width="0.5"/>
<line x1="236.1548" y1="876.8099" x2="247.6264" y2="860.4269" stroke="black" stroke-width="0.5"/>
<line x1="242.7713" y1="881.3573" x2="249.4816" y2="871.4088" stroke="black" stroke-width="0.5"/>
<line x1="249.4660" y1="885.7885" x2="256.0017" y2="875.7244" stroke="black" stroke-width="0.5"/>
<line x1="256.2371" y1="890.1021" x2="262.5962" y2="879.9255" stroke="black" stroke-width="0.5"/>
<line x1="263.0825" y1="894.2970" x2="269.2629" y2="884.0110" stroke="black" stroke-width="0.5"/>
<line x1="276.9876" y1="902.3251" x2="282.8053" y2="891.8296" stroke="black" stroke-width="0.5"/>
<line x1="284.0431" y1="906.1559" x2="289.6767" y2="895.5605" stroke="black" stroke-width="0.5"/>
<line x1="291.1644" y1="909.8630" x2="296.6123" y2="899.1709" stroke="black" stroke-width="0.5"/>
<line x1="298.3493" y1="913.4453" x2="303.6097" y2="902.6597" stroke="black" stroke-width="0.5"/>
<line x1="305.5956" y1="916.9016" x2="314.0480" y2="898.7754" stroke="black" stroke-width="0.5"/>
<line x1="312.9011" y1="920.2309" x2="317.7820" y2="909.2684" stroke="black" stroke-width="0.5"/>
<line x1="320.2637" y1="923.4322" x2="324.9525" y2="912.3862" stroke="black" stroke-width="0.5"/>
<line x1="327.6810" y1="926.5046" x2="332.1762" y2="915.3784" stroke="black" stroke-width="0.5"/>
<line x1="335.1507" y1="929.4470" x2="339.4512" y2="918.2440" stroke="black" stroke-width="0.5"/>
<line x1="342.6707" y1="932.2586" x2="352.9313" y2="904.0678" stroke="black" stroke-width="1.0"/>
<line x1="350.2386" y1="934.9385" x2="354.1455" y2="923.5923" stroke="black" stroke-width="0.5"/>
<line x1="357.8522" y1="937.4860" x2="361.5604" y2="926.0733" stroke="black" stroke-width="0.5"/>
<line x1="365.5090" y1="939.9002" x2="369.0175" y2="928.4245" stroke="black" stroke-width="0.5"/>
<line x1="373.2068" y1="942.1804" x2="376.5145" y2="930.6452" stroke="black" stroke-width="0.5"/>
<line x1="380.9432" y1="944.3259" x2="386.1196" y2="925.0074" stroke="black" stroke-width="0.5"/>
<line x1="388.7159" y1="946.3360" x2="391.6190" y2="934.6925" stroke="black" stroke-width="0.5"/>
<line x1="396.5225" y1="948.2102" x2="399.2219" y2="936.5178" stroke="black" stroke-width="0.5"/>
<line x1="404.3606" y1="949.9479" x2="406.8556" y2="938.2101" stroke="black" stroke-width="0.5"/>
<line x1="412.2279" y1="951.5485" x2="414.5176" y2="939.7690" stroke="black" stroke-width="0.5"/>
<line x1="420.1218" y1="953.0116" x2="425.3313" y2="923.4673" stroke="black" stroke-width="1.0"/>
<line x1="428.0401" y1="954.3366" x2="429.9174" y2="942.4844" stroke="black" stroke-width="0.5"/>
<line x1="435.9804" y1="955.5233" x2="437.6505" y2="943.6401" stroke="black" stroke-width="0.5"/>
<line x1="443.9401" y1="956.5712" x2="445.4025" y2="944.6607" stroke="black" stroke-width="0.5"/>
<line x1="451.9169" y1="957.4801" x2="453.1712" y2="945.5458" stroke="black" stroke-width="0.5"/>
<line x1="459.9084" y1="958.2496" x2="461.6515" y2="938.3257" stroke="black" stroke-width="0.5"/>
<line x1="467.9120" y1="958.8795" x2="468.7491" y2="946.9087" stroke="black" stroke-width="0.5"/>
<line x1="475.9255" y1="959.3696" x2="476.5535" y2="947.3860" stroke="black" stroke-width="0.5"/>
<line x1="483.9462" y1="959.7198" x2="484.3650" y2="947.7271" stroke="black" stroke-width="0.5"/>
<line x1="491.9719" y1="959.9299" x2="492.1813" y2="947.9318" stroke="black" stroke-width="0.5"/>
<line x1="508.0281" y1="959.9299" x2="507.8187" y2="947.9318" stroke="black" stroke-width="0.5"/>
<line x1="516.0538" y1="959.7198" x2="515.6350" y2="947.7271" stroke="black" stroke-width="0.5"/>
<line x1="524.0745" y1="959.3696" x2="523.4465" y2="947.3860" stroke="black" stroke-width="0.5"/>
<line x1="532.0880" y1="958.8795" x2="531.2509" y2="946.9087" stroke="black" stroke-width="0.5"/>
<line x1="540.0916" y1="958.2496" x2="538.3485" y2="938.3257" stroke="black" stroke-width="0.5"/>
<line x1="548.0831" y1="957.4801" x2="546.8288" y2="945.5458" stroke="black" stroke-width="0.5"/>
<line x1="556.0599" y1="956.5712" x2="554.5975" y2="944.6607" stroke="black" stroke-width="0.5"/>
<line x1="564.0196" y1="955.5233" x2="562.3495" y2="943.6401" stroke="black" stroke-width="0.5"/>
<line x1="571.9599" y1="954.3366" x2="570.0826" y2="942.4844" stroke="black" stroke-width="0.5"/>
<line x1="579.8782" y1="953.0116" x2="574.6687" y2="923.4673" stroke="black" stroke-width="1.0"/>
<line x1="587.7721" y1="951.5485" x2="585.4824" y2="939.7690" stroke="black" stroke-width="0.5"/>
<line x1="595.6394" y1="949.9479" x2="593.1444" y2="938.2101" stroke="black" stroke-width="0.5"/>
<line x1="603.4775" y1="948.2102" x2="600.7781" y2="936.5178" stroke="black" stroke-width="0.5"/>
<line x1="611.2841" y1="946.3360" x2="608.3810" y2="934.6925" stroke="black" stroke-width="0.5"/>
<line x1="619.0568" y1="944.3259" x2="613.8804" y2="925.0074" stroke="black" stroke-width="0.5"/>
<line x1="626.7932" y1="942.1804" x2="623.4855" y2="930.6452" stroke="black" stroke-width="0.5"/>
<line x1="634.4910" y1="939.9002" x2="630.9825" y2="928.4245" stroke="black" stroke-width="0.5"/>
<line x1="642.1478" y1="937.4860" x2="638.4396" y2="926.0733" stroke="black" stroke-width="0.5"/>
<line x1="649.7614" y1="934.9385" x2="645.8545" y2="923.5923" stroke="black" stroke-width="0.5"/>
<line x1="657.3293" y1="932.2586" x2="647.0687" y2="904.0678" stroke="black" stroke-width="1.0"/>
<line x1="664.8493" y1="929.4470" x2="660.5488" y2="918.2440" stroke="black" stroke-width="0.5"/>
<line x1="672.3190" y1="926.5046" x2="667.8238" y2="915.3784" stroke="black" stroke-width="0.5"/>
<line x1="679.7363" y1="923.4322" x2="675.0475" y2="912.3862" stroke="black" stroke-width="0.5"/>
<line x1="687.0989" y1="920.2309" x2="682.2180" y2="909.2684" stroke="black" stroke-width="0.5"/>
<line x1="694.4044" y1="916.9016" x2="685.9520" y2="898.7754" stroke="black" stroke-width="0.5"/>
<line x1="701.6507" y1="913.4453" x2="696.3903" y2="902.6597" stroke="black" stroke-width="0.5"/>
<line x1="708.8356" y1="909.8630" x2="703.3877" y2="899.1709" stroke="black" stroke-width="0.5"/>
<line x1="715.9569" y1="906.1559" x2="710.3233" y2="895.5605" stroke="black" stroke-width="0.5"/>
<line x1="723.0124" y1="902.3251" x2="717.1947" y2="891.8296" stroke="black" stroke-width="0.5"/>
<line x1="736.9175" y1="894.2970" x2="730.7371" y2="884.0110" stroke="black" stroke-width="0.5"/>
<line x1="743.7629" y1="890.1021" x2="737.4038" y2="879.9255" stroke="black" stroke-width="0.5"/>
<line x1="750.5340" y1="885.7885" x2="743.9983" y2="875.7244" stroke="black" stroke-width="0.5"/>
<line x1="757.2287" y1="881.3573" x2="750.5184" y2="871.4088" stroke="black" stroke-width="0.5"/>
<line x1="763.8452" y1="876.8099" x2="752.3736" y2="860.4269" stroke="black" stroke-width="0.5"/>
<line x1="770.3812" y1="872.1478" x2="763.3278" y2="862.4396" stroke="black" stroke-width="0.5"/>
<line x1="776.8349" y1="867.3723" x2="769.6131" y2="857.7887" stroke="black" stroke-width="0.5"/>
<line x1="783.2043" y1="862.4849" x2="775.8163" y2="853.0288" stroke="black" stroke-width="0.5"/>
<line x1="789.4874" y1="857.4871" x2="781.9355" y2="848.1614" stroke="black" stroke-width="0.5"/>
<line x1="795.6823" y1="852.3804" x2="776.3987" y2="829.3991" stroke="black" stroke-width="1.0"/>
<line x1="801.7872" y1="847.1664" x2="793.9144" y2="838.1099" stroke="black" stroke-width="0.5"/>
<line x1="807.8001" y1="841.8466" x2="799.7705" y2="832.9289" stroke="black" stroke-width="0.5"/>
<line x1="813.7192" y1="836.4227" x2="805.5353" y2="827.6465" stroke="black" stroke-width="0.5"/>
<line x1="819.5429" y1="830.8963" x2="811.2069" y2="822.2642" stroke="black" stroke-width="0.5"/>
<line x1="825.2691" y1="825.2691" x2="811.1270" y2="811.1270" stroke="black" stroke-width="0.5"/>
<line x1="830.8963" y1="819.5429" x2="822.2642" y2="811.2069" stroke="black" stroke-width="0.5"/>
<line x1="836.4227" y1="813.7192" x2="827.6465" y2="805.5353" stroke="black" stroke-width="0.5"/>
<line x1="841.8466" y1="807.8001" x2="832.9289" y2="799.7705" stroke="black" stroke-width="0.5"/>
<line x1="847.1664" y1="801.7872" x2="838.1099" y2="793.9144" stroke="black" stroke-width="0.5"/>
<line x1="852.3804" y1="795.6823" x2="829.3991" y2="776.3987" stroke="black" stroke-width="1.0"/>
<line x1="857.4871" y1="789.4874" x2="848.1614" y2="781.9355" stroke="black" stroke-width="0.5"/>
<line x1="862.4849" y1="783.2043" x2="853.0288" y2="775.8163" stroke="black" stroke-width="0.5"/>
<line x1="867.3723" y1="776.8349" x2="857.7887" y2="769.6131" stroke="black" stroke-width="0.5"/>
<line x1="872.1478" y1="770.3812" x2="862.4396" y2="763.3278" stroke="black" stroke-width="0.5"/>
<line x1="876.8099" y1="763.8452" x2="860.4269" y2="752.3736" stroke="black" stroke-width="0.5"/>
<line x1="881.3573" y1="757.2287" x2="871.4088" y2="750.5184" stroke="black" stroke-width="0.5"/>
<line x1="885.7885" y1="750.5340" x2="875.7244" y2="743.9983" stroke="black" stroke-width="0.5"/>
<line x1="890.1021" y1="743.7629" x2="879.9255" y2="737.4038" stroke="black" stroke-width="0.5"/>
<line x1="894.2970" y1="736.9175" x2="884.0110" y2="730.7371" stroke="black" stroke-width="0.5"/>
<line x1="902.3251" y1="723.0124" x2="891.8296" y2="717.1947" stroke="black" stroke-width="0.5"/>
<line x1="906.1559" y1="715.9569" x2="895.5605" y2="710.3233" stroke="black" stroke-width="0.5"/>
<line x1="909.8630" y1="708.8356" x2="899.1709" y2="703.3877" stroke="black" stroke-width="0.5"/>
<line x1="913.4453" y1="701.6507" x2="902.6597" y2="696.3903" stroke="black" stroke-width="0.5"/>
<line x1="916.9016" y1="694.4044" x2="898.7754" y2="685.9520" stroke="black" stroke-width="0.5"/>
<line x1="920.2309" y1="687.0989" x2="909.2684" y2="682.2180" stroke="black" stroke-width="0.5"/>
<line x1="923.4322" y1="679.7363" x2="912.3862" y2="675.0475" stroke="black" stroke-width="0.5"/>
<line x1="926.5046" y1="672.3190" x2="915.3784" y2="667.8238" stroke="black" stroke-width="0.5"/>
<line x1="929.4470" y1="664.8493" x2="918.2440" y2="660.5488" stroke="black" stroke-width="0.5"/>
<line x1="932.2586" y1="657.3293" x2="904.0678" y2="647.0687" stroke="black" stroke-width="1.0"/>
<line x1="934.9385" y1="649.7614" x2="923.5923" y2="645.8545" stroke="black" stroke-width="0.5"/>
<line x1="937.4860" y1="642.1478" x2="926.0733" y2="638.4396" stroke="black" stroke-width="0.5"/>
<line x1="939.9002" y1="634.4910" x2="928.4245" y2="630.9825" stroke="black" stroke-width="0.5"/>
<line x1="942.1804" y1="626.7932" x2="930.6452" y2="623.4855" stroke="black" stroke-width="0.5"/>
<line x1="944.3259" y1="619.0568" x2="925.0074" y2="613.8804" stroke="black" stroke-width="0.5"/>
<line x1="946.3360" y1="611.2841" x2="934.6925" y2="608.3810" stroke="black" stroke-width="0.5"/>
<line x1="948.2102" y1="603.4775" x2="936.5178" y2="600.7781" stroke="black" stroke-width="0.5"/>
<line x1="949.9479" y1="595.6394" x2="938.2101" y2="593.1444" stroke="black" stroke-width="0.5"/>
<line x1="951.5485" y1="587.7721" x2="939.7690" y2="585.4824" stroke="black" stroke-width="0.5"/>
<line x1="953.0116" y1="579.8782" x2="923.4673" y2="574.6687" stroke="black" stroke-width="1.0"/>
<line x1="954.3366" y1="571.9599" x2="942.4844" y2="570.0826" stroke="black" stroke-width="0.5"/>
<line x1="955.5233" y1="564.0196" x2="943.6401" y2="562.3495" stroke="black" stroke-width="0.5"/>
<line x1="956.5712" y1="556.0599" x2="944.6607" y2="554.5975" stroke="black" stroke-width="0.5"/>
<line x1="957.4801" y1="548.0831" x2="945.5458" y2="546.8288" stroke="black" stroke-width="0.5"/>
<line x1="958.2496" y1="540.0916" x2="938.3257" y2="538.3485" stroke="black" stroke-width="0.5"/>
<line x1="958.8795" y1="532.0880" x2="946.9087" y2="531.2509" stroke="black" stroke-width="0.5"/>
<line x1="959.3696" y1="524.0745" x2="947.3860" y2="523.4465" stroke="black" stroke-width="0.5"/>
<line x1="959.7198" y1="516.0538" x2="947.7271" y2="515.6350" stroke="black" stroke-width="0.5"/>
<line x1="959.9299" y1="508.0281" x2="947.9318" y2="507.8187" stroke="black" stroke-width="0.5"/>
<line x1="959.9299" y1="491.9719" x2="947.9318" y2="492.1813" stroke="black" stroke-width="0.5"/>
<line x1="959.7198" y1="483.9462" x2="947.7271" y2="484.3650" stroke="black" stroke-width="0.5"/>
<line x1="959.3696" y1="475.9255" x2="947.3860" y2="476.5535" stroke="black" stroke-width="0.5"/>
<line x1="958.8795" y1="467.9120" x2="946.9087" y2="468.7491" stroke="black" stroke-width="0.5"/>
<line x1="958.2496" y1="459.9084" x2="938.3257" y2="461.6515" stroke="black" stroke-width="0.5"/>
<line x1="957.4801" y1="451.9169" x2="945.5458" y2="453.1712" stroke="black" stroke-width="0.5"/>
<line x1="956.5712" y1="443.9401" x2="944.6607" y2="445.4025" stroke="black" stroke-width="0.5"/>
<line x1="955.5233" y1="435.9804" x2="943.6401" y2="437.6505" stroke="black" stroke-width="0.5"/>
<line x1="954.3366" y1="428.0401" x2="942.4844" y2="429.9174" stroke="black" stroke-width="0.5"/>
<line x1="953.0116" y1="420.1218" x2="923.4673" y2="425.3313" stroke="black" stroke-width="1.0"/>
<line x1="951.5485" y1="412.2279" x2="939.7690" y2="414.5176" stroke="black" stroke-width="0.5"/>
<line x1="949.9479" y1="404.3606" x2="938.2101" y2="406.8556" stroke="black" stroke-width="0.5"/>
<line x1="948.2102" y1="396.5225" x2="936.5178" y2="399.2219" stroke="black" stroke-width="0.5"/>
<line x1="946.3360" y1="388.7159" x2="934.6925" y2="391.6190" stroke="black" stroke-width="0.5"/>
<line x1="944.3259" y1="380.9432" x2="925.0074" y2="386.1196" stroke="black" stroke-width="0.5"/>
<line x1="942.1804" y1="373.2068" x2="930.6452" y2="376.5145" stroke="black" stroke-width="0.5"/>
<line x1="939.9002" y1="365.5090" x2="928.4245" y2="369.0175" stroke="black" stroke-width="0.5"/>
<line x1="937.4860" y1="357.8522" x2="926.0733" y2="361.5604" stroke="black" stroke-width="0.5"/>
<line x1="934.9385" y1="350.2386" x2="923.5923" y2="354.1455" stroke="black" stroke-width="0.5"/>
<line x1="932.2586" y1="342.6707" x2="904.0678" y2="352.9313" stroke="black" stroke-width="1.0"/>
<line x1="929.4470" y1="335.1507" x2="918.2440" y2="339.4512" stroke="black" stroke-width="0.5"/>
<line x1="926.5046" y1="327.6810" x2="915.3784" y2="332.1762" stroke="black" stroke-width="0.5"/>
<line x1="923.4322" y1="320.2637" x2="912.3862" y2="324.9525" stroke="black" stroke-width="0.5"/>
<line x1="920.2309" y1="312.9011" x2="909.2684" y2="317.7820" stroke="black" stroke-width="0.5"/>
<line x1="916.9016" y1="305.5956" x2="898.7754" y2="314.0480" stroke="black" stroke-width="0.5"/>
<line x1="913.4453" y1="298.3493" x2="902.6597" y2="303.6097" stroke="black" stroke-width="0.5"/>
<line x1="909.8630" y1="291.1644" x2="899.1709" y2="296.6123" stroke="black" stroke-width="0.5"/>
<line x1="906.1559" y1="284.0431" x2="895.5605" y2="289.6767" stroke="black" stroke-width="0.5"/>
<line x1="902.3251" y1="276.9876" x2="891.8296" y2="282.8053" stroke="black" stroke-width="0.5"/>
<line x1="894.2970" y1="263.0825" x2="884.0110" y2="269.2629" stroke="black" stroke-width="0.5"/>
<line x1="890.1021" y1="256.2371" x2="879.9255" y2="262.5962" stroke="black" stroke-width="0.5"/>
<line x1="885.7885" y1="249.4660" x2="875.7244" y2="256.0017" stroke="black" stroke-width="0.5"/>
<line x1="881.3573" y1="242.7713" x2="871.4088" y2="249.4816" stroke="black" stroke-width="0.5"/>
<line x1="876.8099" y1="236.1548" x2="860.4269" y2="247.6264" stroke="black" stroke-width="0.5"/>
<line x1="872.1478" y1="229.6188" x2="862.4396" y2="236.6722" stroke="black" stroke-width="0.5"/>
<line x1="867.3723" y1="223.1651" x2="857.7887" y2="230.3869" stroke="black" stroke-width="0.5"/>
<line x1="862.4849" y1="216.7957" x2="853.0288" y2="224.1837" stroke="black" stroke-width="0.5"/>
<line x1="857.4871" y1="210.5126" x2="848.1614" y2="218.0645" stroke="black" stroke-width="0.5"/>
<line x1="852.3804" y1="204.3177" x2="829.3991" y2="223.6013" stroke="black" stroke-width="1.0"/>
<line x1="847.1664" y1="198.2128" x2="838.1099" y2="206.0856" stroke="black" stroke-width="0.5"/>
<line x1="841.8466" y1="192.1999" x2="832.9289" y2="200.2295" stroke="black" stroke-width="0.5"/>
<line x1="836.4227" y1="186.2808" x2="827.6465" y2="194.4647" stroke="black" stroke-width="0.5"/>
<line x1="830.8963" y1="180.4571" x2="822.2642" y2="188.7931" stroke="black" stroke-width="0.5"/>
<line x1="825.2691" y1="174.7309" x2="811.1270" y2="188.8730" stroke="black" stroke-width="0.5"/>
<line x1="819.5429" y1="169.1037" x2="811.2069" y2="177.7358" stroke="black" stroke-width="0.5"/>
<line x1="813.7192" y1="163.5773" x2="805.5353" y2="172.3535" stroke="black" stroke-width="0.5"/>
<line x1="807.8001" y1="158.1534" x2="799.7705" y2="167.0711" stroke="black" stroke-width="0.5"/>
<line x1="801.7872" y1="152.8336" x2="793.9144" y2="161.8901" stroke="black" stroke-width="0.5"/>
<line x1="795.6823" y1="147.6196" x2="776.3987" y2="170.6009" stroke="black" stroke-width="1.0"/>
<line x1="789.4874" y1="142.5129" x2="781.9355" y2="151.8386" stroke="black" stroke-width="0.5"/>
<line x1="783.2043" y1="137.5151" x2="775.8163" y2="146.9712" stroke="black" stroke-width="0.5"/>
<line x1="776.8349" y1="132.6277" x2="769.6131" y2="142.2113" stroke="black" stroke-width="0.5"/>
<line x1="770.3812" y1="127.8522" x2="763.3278" y2="137.5604" stroke="black" stroke-width="0.5"/>
<line x1="763.8452" y1="123.1901" x2="752.3736" y2="139.5731" stroke="black" stroke-width="0.5"/>
<line x1="757.2287" y1="118.6427" x2="750.5184" y2="128.5912" stroke="black" stroke-width="0.5"/>
<line x1="750.5340" y1="114.2115" x2="743.9983" y2="124.2756" stroke="black" stroke-width="0.5"/>
<line x1="743.7629" y1="109.8979" x2="737.4038" y2="120.0745" stroke="black" stroke-width="0.5"/>
<line x1="736.9175" y1="105.7030" x2="730.7371" y2="115.9890" stroke="black" stroke-width="0.5"/>
<line x1="723.0124" y1="97.6749" x2="717.1947" y2="108.1704" stroke="black" stroke-width="0.5"/>
<line x1="715.9569" y1="93.8441" x2="710.3233" y2="104.4395" stroke="black" stroke-width="0.5"/>
<line x1="708.8356" y1="90.1370" x2="703.3877" y2="100.8291" stroke="black" stroke-width="0.5"/>
<line x1="701.6507" y1="86.5547" x2="696.3903" y2="97.3403" stroke="black" stroke-width="0.5"/>
<line x1="694.4044" y1="83.0984" x2="685.9520" y2="101.2246" stroke="black" stroke-width="0.5"/>
<line x1="687.0989" y1="79.7691" x2="682.2180" y2="90.7316" stroke="black" stroke-width="0.5"/>
<line x1="679.7363" y1="76.5678" x2="675.0475" y2="87.6138" stroke="black" stroke-width="0.5"/>
<line x1="672.3190" y1="73.4954" x2="667.8238" y2="84.6216" stroke="black" stroke-width="0.5"/>
<line x1="664.8493" y1="70.5530" x2="660.5488" y2="81.7560" stroke="black" stroke-width="0.5"/>
<line x1="657.3293" y1="67.7414" x2="647.0687" y2="95.9322" stroke="black" stroke-width="1.0"/>
<line x1="649.7614" y1="65.0615" x2="645.8545" y2="76.4077" stroke="black" stroke-width="0.5"/>
<line x1="642.1478" y1="62.5140" x2="638.4396" y2="73.9267" stroke="black" stroke-width="0.5"/>
<line x1="634.4910" y1="60.0998" x2="630.9825" y2="71.5755" stroke="black" stroke-width="0.5"/>
<line x1="626.7932" y1="57.8196" x2="623.4855" y2="69.3548" stroke="black" stroke-width="0.5"/>
<line x1="619.0568" y1="55.6741" x2="613.8804" y2="74.9926" stroke="black" stroke-width="0.5"/>
<line x1="611.2841" y1="53.6640" x2="608.3810" y2="65.3075" stroke="black" stroke-width="0.5"/>
<line x1="603.4775" y1="51.7898" x2="600.7781" y2="63.4822" stroke="black" stroke-width="0.5"/>
<line x1="595.6394" y1="50.0521" x2="593.1444" y2="61.7899" stroke="black" stroke-width="0.5"/>
<line x1="587.7721" y1="48.4515" x2="585.4824" y2="60.2310" stroke="black" stroke-width="0.5"/>
<line x1="579.8782" y1="46.9884" x2="574.6687" y2="76.5327" stroke="black" stroke-width="1.0"/>
<line x1="571.9599" y1="45.6634" x2="570.0826" y2="57.5156" stroke="black" stroke-width="0.5"/>
<line x1="564.0196" y1="44.4767" x2="562.3495" y2="56.3599" stroke="black" stroke-width="0.5"/>
<line x1="556.0599" y1="43.4288" x2="554.5975" y2="55.3393" stroke="black" stroke-width="0.5"/>
<line x1="548.0831" y1="42.5199" x2="546.8288" y2="54.4542" stroke="black" stroke-width="0.5"/>
<line x1="540.0916" y1="41.7504" x2="538.3485" y2="61.6743" stroke="black" stroke-width="0.5"/>
<line x1="532.0880" y1="41.1205" x2="531.2509" y2="53.0913" stroke="black" stroke-width="0.5"/>
<line x1="524.0745" y1="40.6304" x2="523.4465" y2="52.6140" stroke="black" stroke-width="0.5"/>
<line x1="516.0538" y1="40.2802" x2="515.6350" y2="52.2729" stroke="black" stroke-width="0.5"/>
<line x1="508.0281" y1="40.0701" x2="507.8187" y2="52.0682" stroke="black" stroke-width="0.5"/>
<line x1="491.9719" y1="40.0701" x2="492.1813" y2="52.0682" stroke="black" stroke-width="0.5"/>
<line x1="483.9462" y1="40.2802" x2="484.3650" y2="52.2729" stroke="black" stroke-width="0.5"/>
<line x1="475.9255" y1="40.6304" x2="476.5535" y2="52.6140" stroke="black" stroke-width="0.5"/>
<line x1="467.9120" y1="41.1205" x2="468.7491" y2="53.0913" stroke="black" stroke-width="0.5"/>
<line x1="459.9084" y1="41.7504" x2="461.6515" y2="61.6743" stroke="black" stroke-width="0.5"/>
<line x1="451.9169" y1="42.5199" x2="453.1712" y2="54.4542" stroke="black" stroke-width="0.5"/>
<line x1="443.9401" y1="43.4288" x2="445.4025" y2="55.3393" stroke="black" stroke-width="0.5"/>
<line x1="435.9804" y1="44.4767" x2="437.6505" y2="56.3599" stroke="black" stroke-width="0.5"/>
<line x1="428.0401" y1="45.6634" x2="429.9174" y2="57.5156" stroke="black" stroke-width="0.5"/>
<line x1="420.1218" y1="46.9884" x2="425.3313" y2="76.5327" stroke="black" stroke-width="1.0"/>
<line x1="412.2279" y1="48.4515" x2="414.5176" y2="60.2310" stroke="black" stroke-width="0.5"/>
<line x1="404.3606" y1="50.0521" x2="406.8556" y2="61.7899" stroke="black" stroke-width="0.5"/>
<line x1="396.5225" y1="51.7898" x2="399.2219" y2="63.4822" stroke="black" stroke-width="0.5"/>
<line x1="388.7159" y1="53.6640" x2="391.6190" y2="65.3075" stroke="black" stroke-width="0.5"/>
<line x1="380.9432" y1="55.6741" x2="386.1196" y2="74.9926" stroke="black" stroke-width="0.5"/>
<line x1="373.2068" y1="57.8196" x2="376.5145" y2="69.3548" stroke="black" stroke-width="0.5"/>
<line x1="365.5090" y1="60.0998" x2="369.0175" y2="71.5755" stroke="black" stroke-width="0.5"/>
<line x1="357.8522" y1="62.5140" x2="361.5604" y2="73.9267" stroke="black" stroke-width="0.5"/>
<line x1="350.2386" y1="65.0615" x2="354.1455" y2="76.4077" stroke="black" stroke-width="0.5"/>
<line x1="342.6707" y1="67.7414" x2="352.9313" y2="95.9322" stroke="black" stroke-width="1.0"/>
<line x1="335.1507" y1="70.5530" x2="339.4512" y2="81.7560" stroke="black" stroke-width="0.5"/>
<line x1="327.6810" y1="73.4954" x2="332.1762" y2="84.6216" stroke="black" stroke-width="0.5"/>
<line x1="320.2637" y1="76.5678" x2="324.9525" y2="87.6138" stroke="black" stroke-width="0.5"/>
<line x1="312.9011" y1="79.7691" x2="317.7820" y2="90.7316" stroke="black" stroke-width="0.5"/>
<line x1="305.5956" y1="83.0984" x2="314.0480" y2="101.2246" stroke="black" stroke-width="0.5"/>
<line x1="298.3493" y1="86.5547" x2="303.6097" y2="97.3403" stroke="black" stroke-width="0.5"/>
<line x1="291.1644" y1="90.1370" x2="296.6123" y2="100.8291" stroke="black" stroke-width="0.5"/>
<line x1="284.0431" y1="93.8441" x2="289.6767" y2="104.4395" stroke="black" stroke-width="0.5"/>
<line x1="276.9876" y1="97.6749" x2="282.8053" y2="108.1704" stroke="black" stroke-width="0.5"/>
<line x1="263.0825" y1="105.7030" x2="269.2629" y2="115.9890" stroke="black" stroke-width="0.5"/>
<line x1="256.2371" y1="109.8979" x2="262.5962" y2="120.0745" stroke="black" stroke-width="0.5"/>
<line x1="249.4660" y1="114.2115" x2="256.0017" y2="124.2756" stroke="black" stroke-width="0.5"/>
<line x1="242.7713" y1="118.6427" x2="249.4816" y2="128.5912" stroke="black" stroke-width="0.5"/>
<line x1="236.1548" y1="123.1901" x2="247.6264" y2="139.5731" stroke="black" stroke-width="0.5"/>
<line x1="229.6188" y1="127.8522" x2="236.6722" y2="137.5604" stroke="black" stroke-width="0.5"/>
<line x1="223.1651" y1="132.6277" x2="230.3869" y2="142.2113" stroke="black" stroke-width="0.5"/>
<line x1="216.7957" y1="137.5151" x2="224.1837" y2="146.9712" stroke="black" stroke-width="0.5"/>
<line x1="210.5126" y1="142.5129" x2="218.0645" y2="151.8386" stroke="black" stroke-width="0.5"/>
<line x1="204.3177" y1="147.6196" x2="223.6013" y2="170.6009" stroke="black" stroke-width="1.0"/>
<line x1="198.2128" y1="152.8336" x2="206.0856" y2="161.8901" stroke="black" stroke-width="0.5"/>
<line x1="192.1999" y1="158.1534" x2="200.2295" y2="167.0711" stroke="black" stroke-width="0.5"/>
<line x1="186.2808" y1="163.5773" x2="194.4647" y2="172.3535" stroke="black" stroke-width="0.5"/>
<line x1="180.4571" y1="169.1037" x2="188.7931" y2="177.7358" stroke="black" stroke-width="0.5"/>
<line x1="174.7309" y1="174.7309" x2="188.8730" y2="188.8730" stroke="black" stroke-width="0.5"/>
<line x1="169.1037" y1="180.4571" x2="177.7358" y2="188.7931" stroke="black" stroke-width="0.5"/>
<line x1="163.5773" y1="186.2808" x2="172.3535" y2="194.4647" stroke="black" stroke-width="0.5"/>
<line x1="158.1534" y1="192.1999" x2="167.0711" y2="200.2295" stroke="black" stroke-width="0.5"/>
<line x1="152.8336" y1="198.2128" x2="161.8901" y2="206.0856" stroke="black" stroke-width="0.5"/>
<line x1="147.6196" y1="204.3177" x2="170.6009" y2="223.6013" stroke="black" stroke-width="1.0"/>
<line x1="142.5129" y1="210.5126" x2="151.8386" y2="218.0645" stroke="black" stroke-width="0.5"/>
<line x1="137.5151" y1="216.7957" x2="146.9712" y2="224.1837" stroke="black" stroke-width="0.5"/>
<line x1="132.6277" y1="223.1651" x2="142.2113" y2="230.3869" stroke="black" stroke-width="0.5"/>
<line x1="127.8522" y1="229.6188" x2="137.5604" y2="236.6722" stroke="black" stroke-width="0.5"/>
<line x1="123.1901" y1="236.1548" x2="139.5731" y2="247.6264" stroke="black" stroke-width="0.5"/>
<line x1="118.6427" y1="242.7713" x2="128.5912" y2="249.4816" stroke="black" stroke-width="0.5"/>
<line x1="114.2115" y1="249.4660" x2="124.2756" y2="256.0017" stroke="black" stroke-width="0.5"/>
<line x1="109.8979" y1="256.2371" x2="120.0745" y2="262.5962" stroke="black" stroke-width="0.5"/>
<line x1="105.7030" y1="263.0825" x2="115.9890" y2="269.2629" stroke="black" stroke-width="0.5"/>
<line x1="97.6749" y1="276.9876" x2="108.1704" y2="282.8053" stroke="black" stroke-width="0.5"/>
<line x1="93.8441" y1="284.0431" x2="104.4395" y2="289.6767" stroke="black" stroke-width="0.5"/>
<line x1="90.1370" y1="291.1644" x2="100.8291" y2="296.6123" stroke="black" stroke-width="0.5"/>
<line x1="86.5547" y1="298.3493" x2="97.3403" y2="303.6097" stroke="black" stroke-width="0.5"/>
<line x1="83.0984" y1="305.5956" x2="101.2246" y2="314.0480" stroke="black" stroke-width="0.5"/>
<line x1="79.7691" y1="312.9011" x2="90.7316" y2="317.7820" stroke="black" stroke-width="0.5"/>
<line x1="76.5678" y1="320.2637" x2="87.6138" y2="324.9525" stroke="black" stroke-width="0.5"/>
<line x1="73.4954" y1="327.6810" x2="84.6216" y2="332.1762" stroke="black" stroke-width="0.5"/>
<line x1="70.5530" y1="335.1507" x2="81.7560" y2="339.4512" stroke="black" stroke-width="0.5"/>
<line x1="67.7414" y1="342.6707" x2="95.9322" y2="352.9313" stroke="black" stroke-width="1.0"/>
<line x1="65.0615" y1="350.2386" x2="76.4077" y2="354.1455" stroke="black" stroke-width="0.5"/>
<line x1="62.5140" y1="357.8522" x2="73.9267" y2="361.5604" stroke="black" stroke-width="0.5"/>
<line x1="60.0998" y1="365.5090" x2="71.5755" y2="369.0175" stroke="black" stroke-width="0.5"/>
<line x1="57.8196" y1="373.2068" x2="69.3548" y2="376.5145" stroke="black" stroke-width="0.5"/>
<line x1="55.6741" y1="380.9432" x2="74.9926" y2="386.1196" stroke="black" stroke-width="0.5"/>
<line x1="53.6640" y1="388.7159" x2="65.3075" y2="391.6190" stroke="black" stroke-width="0.5"/>
<line x1="51.7898" y1="396.5225" x2="63.4822" y2="399.2219" stroke="black" stroke-width="0.5"/>
<line x1="50.0521" y1="404.3606" x2="61.7899" y2="406.8556" stroke="black" stroke-width="0.5"/>
<line x1="48.4515" y1="412.2279" x2="60.2310" y2="414.5176" stroke="black" stroke-width="0.5"/>
<line x1="46.9884" y1="420.1218" x2="76.5327" y2="425.3313" stroke="black" stroke-width="1.0"/>
<line x1="45.6634" y1="428.0401" x2="57.5156" y2="429.9174" stroke="black" stroke-width="0.5"/>
<line x1="44.4767" y1="435.9804" x2="56.3599" y2="437.6505" stroke="black" stroke-width="0.5"/>
<line x1="43.4288" y1="443.9401" x2="55.3393" y2="445.4025" stroke="black" stroke-width="0.5"/>
<line x1="42.5199" y1="451.9169" x2="54.4542" y2="453.1712" stroke="black" stroke-width="0.5"/>
<line x1="41.7504" y1="459.9084" x2="61.6743" y2="461.6515" stroke="black" stroke-width="0.5"/>
<line x1="41.1205" y1="467.9120" x2="53.0913" y2="468.7491" stroke="black" stroke-width="0.5"/>
<line x1="40.6304" y1="475.9255" x2="52.6140" y2="476.5535" stroke="black" stroke-width="0.5"/>
<line x1="40.2802" y1="483.9462" x2="52.2729" y2="484.3650" stroke="black" stroke-width="0.5"/>
<line x1="40.0701" y1="491.9719" x2="52.0682" y2="492.1813" stroke="black" stroke-width="0.5"/>
<!-- 30 degree sign boundaries -->
<line x1="40.0000" y1="500.0000" x2="120.0000" y2="500.0000" stroke="black" stroke-width="2.0"/>
<line x1="101.6283" y1="730.0000" x2="170.9103" y2="690.0000" stroke="black" stroke-width="2.0"/>
<line x1="270.0000" y1="898.3717" x2="310.0000" y2="829.0897" stroke="black" stroke-width="2.0"/>
<line x1="500.0000" y1="960.0000" x2="500.0000" y2="880.0000" stroke="black" stroke-width="2.0"/>
<line x1="730.0000" y1="898.3717" x2="690.0000" y2="829.0897" stroke="black" stroke-width="2.0"/>
<line x1="898.3717" y1="730.0000" x2="829.0897" y2="690.0000" stroke="black" stroke-width="2.0"/>
<line x1="960.0000" y1="500.0000" x2="880.0000" y2="500.0000" stroke="black" stroke-width="2.0"/>
<line x1="898.3717" y1="270.0000" x2="829.0897" y2="310.0000" stroke="black" stroke-width="2.0"/>
<line x1="730.0000" y1="101.6283" x2="690.0000" y2="170.9103" stroke="black" stroke-width="2.0"/>
<line x1="500.0000" y1="40.0000" x2="500.0000" y2="120.0000" stroke="black" stroke-width="2.0"/>
<line x1="270.0000" y1="101.6283" x2="310.0000" y2="170.9103" stroke="black" stroke-width="2.0"/>
<line x1="101.6283" y1="270.0000" x2="170.9103" y2="310.0000" stroke="black" stroke-width="2.0"/>
<!-- House cusp lines -->
<line x1="25.0000" y1="500.0000" x2="360.0000" y2="500.0000" stroke="black" stroke-width="2.5"/>
<line x1="170.9103" y1="690.0000" x2="378.7564" y2="570.0000" stroke="black" stroke-width="1.0"/>
<line x1="310.0000" y1="829.0897" x2="430.0000" y2="621.2436" stroke="black" stroke-width="1.0"/>
<line x1="500.0000" y1="975.0000" x2="500.0000" y2="640.0000" stroke="black" stroke-width="2.5"/>
<line x1="690.0000" y1="829.0897" x2="570.0000" y2="621.2436" stroke="black" stroke-width="1.0"/>
<line x1="829.0897" y1="690.0000" x2="621.2436" y2="570.0000" stroke="black" stroke-width="1.0"/>
<line x1="975.0000" y1="500.0000" x2="640.0000" y2="500.0000" stroke="black" stroke-width="2.5"/>
<line x1="829.0897" y1="310.0000" x2="621.2436" y2="430.0000" stroke="black" stroke-width="1.0"/>
<line x1="690.0000" y1="170.9103" x2="570.0000" y2="378.7564" stroke="black" stroke-width="1.0"/>
<line x1="500.0000" y1="25.0000" x2="500.0000" y2="360.0000" stroke="black" stroke-width="2.5"/>
<line x1="310.0000" y1="170.9103" x2="430.0000" y2="378.7564" stroke="black" stroke-width="1.0"/>
<line x1="170.9103" y1="310.0000" x2="378.7564" y2="430.0000" stroke="black" stroke-width="1.0"/>
<!-- House numbers -->
<text x="108.8000" y="604.8217" text-anchor="middle" dominant-baseline="central" font-size="18" font-family="Arial, Helvetica, sans-serif" fill="black">1</text>
<text x="213.6218" y="786.3782" text-anchor="middle" dominant-baseline="central" font-size="18" font-family="Arial, Helvetica, sans-serif" fill="black">2</text>
<text x="395.1783" y="891.2000" text-anchor="middle" dominant-baseline="central" font-size="18" font-family="Arial, Helvetica, sans-serif" fill="black">3</text>
<text x="604.8217" y="891.2000" text-anchor="middle" dominant-baseline="central" font-size="18" font-family="Arial, Helvetica, sans-serif" fill="black">4</text>
<text x="786.3782" y="786.3782" text-anchor="middle" dominant-baseline="central" font-size="18" font-family="Arial, Helvetica, sans-serif" fill="black">5</text>
<text x="891.2000" y="604.8217" text-anchor="middle" dominant-baseline="central" font-size="18" font-family="Arial, Helvetica, sans-serif" fill="black">6</text>
<text x="891.2000" y="395.1783" text-anchor="middle" dominant-baseline="central" font-size="18" font-family="Arial, Helvetica, sans-serif" fill="black">7</text>
<text x="786.3782" y="213.6218" text-anchor="middle" dominant-baseline="central" font-size="18" font-family="Arial, Helvetica, sans-serif" fill="black">8</text>
<text x="604.8217" y="108.8000" text-anchor="middle" dominant-baseline="central" font-size="18" font-family="Arial, Helvetica, sans-serif" fill="black">9</text>
<text x="395.1783" y="108.8000" text-anchor="middle" dominant-baseline="central" font-size="18" font-family="Arial, Helvetica, sans-serif" fill="black">10</text>
<text x="213.6218" y="213.6218" text-anchor="middle" dominant-baseline="central" font-size="18" font-family="Arial, Helvetica, sans-serif" fill="black">11</text>
<text x="108.8000" y="395.1783" text-anchor="middle" dominant-baseline="central" font-size="18" font-family="Arial, Helvetica, sans-serif" fill="black">12</text>
</svg>